<svg preserveAspectRatio="xMidYMid meet" data-bbox="49.41 56.337 101.18 87.325" viewBox="49.41 56.337 101.18 87.325" height="200" width="200" xmlns="http://www.w3.org/2000/svg" data-type="color" role="presentation" aria-hidden="true" aria-label=""><defs><style>[data-color=&quot;1&quot;] {fill: #C2C2C2;}
[data-color=&quot;2&quot;] {fill: #C2C2C2;}</style></defs>
    <g>
        <path fill="#A2FDF3" d="M138.66 106.202c0 20.677-16.762 37.439-37.439 37.439s-37.439-16.762-37.439-37.439 16.762-37.439 37.439-37.439 37.439 16.762 37.439 37.439z" data-color="1"></path>
        <path d="M60.333 57.102c-.017-.363-.201-.646-.428-.646h-.008c-.235 0-.428.309-.428.692l-.451 19.578h-1.239l-.255-19.591c-.003-.377-.196-.678-.428-.678h-.278c-.233 0-.422.301-.428.678l-.255 19.591h-1.704l-.255-19.591c-.005-.377-.196-.678-.428-.678h-.278c-.232 0-.422.301-.428.678l-.255 19.591h-1.239l-.451-19.578c0-.383-.19-.692-.428-.692h-.008c-.224 0-.411.283-.425.646l-.656 19.623-.17 5.155c0 .204.028.394.045.59.008.071.008.145.017.216.136 1.009.505 1.877 1.026 2.419.74.771 2.2 1.971 2.742 3.326.102.258.182.519.207.788l-1.086 25.042-.286 6.618-.122 2.824-.131 2.989-.442 10.259c-.162 3.613 1.614 6.689 3.859 6.689h.082c2.246 0 4.021-3.077 3.862-6.689l-.133-3.034-.142-3.255-.133-3.082-.312-7.217-1.35-31.144c.026-.269.105-.531.21-.788.539-1.355 1.999-2.555 2.739-3.326.522-.542.893-1.409 1.026-2.419.009-.071.012-.145.017-.216.02-.195.048-.386.048-.59l-.173-5.155-.647-19.623z" fill="#A0B1B8" data-color="2"></path>
        <path d="M150.533 136.952l.005-32.97h.003l.003-47.506c-.003-.162-.499-.244-1.109.114-1.616.468-4.747 1.701-5.456 4.531-.346 1.387-.641 3.247-.896 5.385-.19 1.605-.36 3.369-.505 5.215a242.037 242.037 0 0 0-.431 6.653c-.034.63-.065 1.256-.096 1.883-.406 8.553-.482 16.365-.482 16.365 0 1.358.437 2.549 1.094 3.235.882.919 3.712 2.447 3.859 4.126l-2.944 32.97c-.161 3.624 2.49 6.709 4.741 6.709h.086c2.253-.001 2.29-3.086 2.128-6.71z" fill="#A0B1B8" data-color="2"></path>
        <path d="M101.221 68.762v12.803c13.583 0 24.634 11.051 24.634 24.636 0 13.583-11.051 24.634-24.634 24.634v12.806c20.678 0 37.439-16.762 37.439-37.439s-16.761-37.44-37.439-37.44z" opacity=".2"></path>
        <path d="M101.221 82.81c-12.897 0-23.392 10.492-23.392 23.392 0 12.897 10.495 23.389 23.392 23.389V82.81z" opacity=".2"></path>
        <path d="M76.587 106.202c0 13.583 11.05 24.634 24.634 24.634v-1.245c-12.897 0-23.392-10.492-23.392-23.389 0-12.9 10.495-23.392 23.392-23.392v-1.245c-13.583 0-24.634 11.051-24.634 24.637z" opacity=".4"></path>
        <path d="M124.612 106.202c0 12.897-10.495 23.389-23.391 23.389v1.245c13.583 0 24.634-11.051 24.634-24.634 0-13.586-11.051-24.636-24.634-24.636v1.245c12.897-.001 23.391 10.491 23.391 23.391z" opacity=".6"></path>
        <path d="M51.381 136.952c-.162 3.613 1.614 6.689 3.859 6.689h.082c2.246 0 4.021-3.077 3.862-6.689l-.133-3.034-7.228-7.225-.442 10.259z" opacity=".1"></path>
        <path opacity=".1" d="M51.954 123.703l6.956 6.959-.133-3.082-6.701-6.701-.122 2.824z"></path>
        <path d="M53.448 89.219l-1.086 25.042 6.102 6.102-1.35-31.144c.026-.269.105-.531.21-.788H53.24c.103.257.183.518.208.788z" opacity=".1"></path>
        <path d="M60.333 57.102c-.017-.363-.201-.646-.428-.646h-.008c-.235 0-.428.309-.428.692l-.451 19.578h-1.239l-.255-19.591c-.003-.377-.196-.678-.428-.678h-.278c-.233 0-.422.301-.428.678l-.255 19.591h-1.704l-.255-19.591c-.006-.377-.196-.678-.428-.678h-.278c-.232 0-.422.301-.428.678l-.255 19.591h-1.239l-.451-19.578c0-.383-.19-.692-.428-.692h-.008c-.224 0-.411.283-.425.646l-.656 19.623h11.402l-.649-19.623z" opacity=".1"></path>
        <path d="M49.473 82.685H61.09c.009-.071.012-.145.017-.216H49.456c.008.072.008.145.017.216z" opacity=".1"></path>
        <path d="M146.524 103.981l-2.943 32.97c-.161 3.624 2.49 6.709 4.741 6.709h.003v-39.68h-1.801z" opacity=".1"></path>
        <path d="M141.57 96.62c0 1.358.437 2.549 1.094 3.235.882.919 3.712 2.447 3.859 4.126h2.912l.065-16.277-7.449-7.45a492.537 492.537 0 0 0-.481 16.366z" opacity=".1"></path>
        <path d="M142.052 80.255l7.449 7.45v-1.977l-7.353-7.356c-.034.63-.065 1.256-.096 1.883z" opacity=".1"></path>
        <path d="M149.436 56.589c-1.616.468-4.747 1.701-5.456 4.531-.346 1.387-.641 3.247-.896 5.385l6.417 6.417-.065-16.333z" opacity=".1"></path>
        <path d="M142.579 71.72a242.037 242.037 0 0 0-.227 3.139l7.149 7.149v-3.363l-6.922-6.925z" opacity=".1"></path>
        <path d="M60.064 85.104c.522-.542.893-1.409 1.026-2.419H49.473c.136 1.009.505 1.877 1.026 2.419.74.771 2.2 1.971 2.742 3.326h4.084c.538-1.355 1.999-2.554 2.739-3.326z" opacity=".4"></path>
        <path d="M150.542 103.981l.003-47.506c-.003-.162-.499-.244-1.109.114v47.392h1.106z" opacity=".4"></path>
        <path d="M150.533 136.952l.006-32.97h-2.215v39.68h.082c2.252-.001 2.289-3.086 2.127-6.71z" opacity=".4"></path>
    </g>
</svg>